<?xml version="1.0" encoding="UTF-8" standalone="no"?>
<!-- Created with Inkscape (http://www.inkscape.org/) -->

<svg
   width="120mm"
   height="180mm"
   viewBox="0 0 120 180"
   version="1.1"
   id="svg1"
   inkscape:version="1.4.2 (ebf0e940d0, 2025-05-08)"
   sodipodi:docname="tensor.svg"
   xmlns:inkscape="http://www.inkscape.org/namespaces/inkscape"
   xmlns:sodipodi="http://sodipodi.sourceforge.net/DTD/sodipodi-0.dtd"
   xmlns="http://www.w3.org/2000/svg"
   xmlns:svg="http://www.w3.org/2000/svg">
  <sodipodi:namedview
     id="namedview1"
     pagecolor="#505050"
     bordercolor="#eeeeee"
     borderopacity="1"
     inkscape:showpageshadow="0"
     inkscape:pageopacity="0"
     inkscape:pagecheckerboard="0"
     inkscape:deskcolor="#505050"
     inkscape:document-units="mm"
     inkscape:zoom="1"
     inkscape:cx="96.5"
     inkscape:cy="241"
     inkscape:window-width="1887"
     inkscape:window-height="1171"
     inkscape:window-x="0"
     inkscape:window-y="0"
     inkscape:window-maximized="0"
     inkscape:current-layer="layer1" />
  <defs
     id="defs1" />
  <g
     inkscape:label="Layer 1"
     inkscape:groupmode="layer"
     id="layer1">
    <g
       id="g36"
       transform="translate(-0.151432,4.4293435)">
      <path
         style="font-size:5.64444px;line-height:1.8;font-family:'CMU Serif';-inkscape-font-specification:'CMU Serif';text-align:center;text-anchor:middle;fill:#ffffff;fill-opacity:0.4;stroke-width:0.300001"
         d="m 39.474232,68.412842 q 0,-0.88889 0.251584,-1.492666 0.268341,-0.620546 0.821806,-1.224322 1.006291,-1.056607 2.465417,-1.056607 0.620546,0 1.174005,0.268341 0.553462,0.251584 1.073377,0.85535 0.536692,0.587003 0.85535,1.761011 0.318658,1.157235 0.318658,2.767304 0,2.599588 -1.257865,4.243198 -1.257865,1.64361 -2.951789,1.64361 -1.073377,0 -1.710696,-0.486376 -0.620546,-0.486372 -0.620546,-1.324949 0,-0.436061 0.234795,-0.620549 0.251583,-0.18449 0.536689,-0.18449 0.301887,0 0.536688,0.201249 0.234796,0.201248 0.234796,0.570232 0,0.301888 -0.201249,0.536689 -0.18449,0.234795 -0.670863,0.234795 0.486376,0.603776 1.64361,0.603776 0.419289,0 0.838577,-0.184491 0.419288,-0.201248 0.87212,-0.670862 0.452832,-0.469602 0.721176,-1.459123 0.28513,-0.98952 0.28513,-2.381556 v -0.536692 q -0.670863,1.677153 -2.096442,1.677153 -1.408809,0 -2.381559,-1.073377 -0.972748,-1.090148 -0.972748,-2.666675 z m 1.509437,0.01664 q 0,1.66038 0.301888,2.280929 0.519918,1.056604 1.559753,1.056604 1.023064,0 1.526209,-0.90566 0.519919,-0.922437 0.519919,-2.113215 0,-1.64361 -0.268342,-2.364786 -0.503145,-1.324952 -1.610066,-1.324952 -1.106924,0 -1.677157,1.056607 -0.352201,0.620546 -0.352201,2.314473 z"
         id="text15"
         aria-label="9" />
      <path
         style="font-size:5.64444px;line-height:1.8;font-family:'CMU Serif';-inkscape-font-specification:'CMU Serif';text-align:center;text-anchor:middle;fill:#ffffff;fill-opacity:0.4;stroke-width:0.300001"
         d="m 55.197539,73.276588 q 0,-1.878411 2.4151,-3.085962 -1.039835,-0.704406 -1.224322,-0.905664 -0.737947,-0.821803 -0.737947,-1.844867 0,-1.174008 0.888891,-1.979042 0.88889,-0.821806 2.146755,-0.821806 1.207552,0 2.113215,0.704406 0.905664,0.687633 0.905664,1.794554 0,1.559753 -2.029358,2.599587 1.341725,0.838577 1.660383,1.190778 0.821807,0.905664 0.821807,2.062899 0,1.341725 -1.039838,2.264159 -1.023064,0.922434 -2.448643,0.922434 -1.392036,0 -2.431873,-0.805034 -1.039834,-0.821806 -1.039834,-2.096442 z m 0.838576,0 q 0,1.039835 0.77149,1.744241 0.788263,0.687633 1.878411,0.687633 1.056608,0 1.844871,-0.603776 0.788263,-0.603776 0.788263,-1.509439 0,-0.352202 -0.117398,-0.65409 -0.117397,-0.301888 -0.352204,-0.536689 -0.234795,-0.251583 -0.385745,-0.352201 -0.134186,-0.117398 -0.402515,-0.301888 L 57.998383,70.4422 q -1.962268,1.090148 -1.962268,2.834388 z m 0.352202,-6.490583 q 0,0.805034 0.838577,1.358493 l 2.079671,1.341722 q 1.66038,-0.972747 1.66038,-2.348013 0,-0.88889 -0.687632,-1.475896 -0.67086,-0.603776 -1.610067,-0.603776 -0.922434,0 -1.610067,0.486376 -0.670862,0.486375 -0.670862,1.241094 z"
         id="text16"
         aria-label="8" />
      <path
         style="font-size:5.64444px;line-height:1.8;font-family:'CMU Serif';-inkscape-font-specification:'CMU Serif';text-align:center;text-anchor:middle;fill:#ffffff;fill-opacity:0.4;stroke-width:0.300001"
         d="m 71.15567,67.92647 0.553462,-3.454937 h 0.419288 q 0.05031,0.201248 0.134186,0.301888 0.08385,0.08385 0.553462,0.167702 0.486372,0.06709 1.459122,0.06709 h 4.075483 q 0,0.385745 -0.150943,0.587002 l -2.264159,3.186593 q -0.721174,1.006291 -1.039835,2.867932 -0.18449,1.241095 -0.18449,2.750531 v 0.85535 q 0,0.922434 -0.77149,0.922434 -0.77149,0 -0.77149,-0.922434 0,-3.203363 2.062899,-6.306099 0.218036,-0.318658 1.023064,-1.459123 0.821803,-1.140464 0.855347,-1.190778 h -3.471708 q -1.526209,0 -1.64361,0.100639 -0.167702,0.150944 -0.419288,1.526213 z"
         id="text17"
         aria-label="7" />
      <path
         style="font-size:5.64444px;line-height:1.8;font-family:'CMU Serif';-inkscape-font-specification:'CMU Serif';text-align:center;text-anchor:middle;fill:#ffffff;fill-opacity:0.4;stroke-width:0.300001"
         d="m 39.474232,87.804948 q 0,-2.633131 1.341723,-4.243198 1.341722,-1.626839 3.069189,-1.626839 1.006294,0 1.559753,0.519918 0.570232,0.503146 0.570232,1.291409 0,0.436058 -0.251583,0.620546 -0.251583,0.18449 -0.519919,0.18449 -0.301888,0 -0.536689,-0.201249 -0.234795,-0.201248 -0.234795,-0.570232 0,-0.75472 0.922434,-0.75472 -0.436058,-0.670862 -1.475896,-0.670862 -0.318658,0 -0.654089,0.100639 -0.318658,0.08385 -0.75472,0.402518 -0.419288,0.301888 -0.754719,0.805033 -0.318658,0.486373 -0.553459,1.408809 -0.218037,0.922434 -0.218037,2.129986 v 0.402515 q 0.687633,-1.66038 2.096442,-1.66038 1.408809,0 2.381559,1.073377 0.972748,1.073378 0.972748,2.666674 0,1.626837 -1.023064,2.716988 -1.006291,1.073378 -2.431871,1.073378 -0.637319,0 -1.224324,-0.268342 -0.57023,-0.268341 -1.106921,-0.87212 -0.536689,-0.603775 -0.855347,-1.76101 -0.318658,-1.174008 -0.318658,-2.767305 z m 1.54298,1.509439 q 0,1.64361 0.301888,2.431873 0.0503,0.134186 0.150944,0.318658 0.117397,0.167732 0.301888,0.402518 0.201248,0.234795 0.519918,0.385745 0.318659,0.150944 0.687633,0.150944 1.123692,0 1.660381,-1.090151 0.285129,-0.603776 0.285129,-2.247386 0,-1.677153 -0.301888,-2.297699 -0.519918,-1.039834 -1.559753,-1.039834 -0.704406,0 -1.190778,0.486372 -0.486375,0.486375 -0.670863,1.140465 -0.18449,0.637319 -0.18449,1.358495 z"
         id="text18"
         aria-label="6" />
      <path
         style="font-size:5.64444px;line-height:1.8;font-family:'CMU Serif';-inkscape-font-specification:'CMU Serif';text-align:center;text-anchor:middle;fill:#ffffff;fill-opacity:0.4;stroke-width:0.300001"
         d="m 55.331709,90.404538 q 0,-0.503149 0.268342,-0.687633 0.268341,-0.201249 0.553462,-0.201249 0.385745,0 0.603776,0.251584 0.234795,0.234795 0.234795,0.570232 0,0.335431 -0.234795,0.587002 -0.218037,0.234795 -0.603776,0.234795 -0.18449,0 -0.28513,-0.03355 0.218037,0.77149 0.888891,1.324949 0.687633,0.553462 1.576523,0.553462 1.123694,0 1.794554,-1.090151 0.402518,-0.704403 0.402518,-2.297699 0,-1.408809 -0.301888,-2.113212 -0.469602,-1.073381 -1.425579,-1.073381 -1.358495,0 -2.163529,1.174008 -0.100639,0.150944 -0.218036,0.150944 -0.167703,0 -0.201249,-0.08385 -0.03355,-0.100639 -0.03355,-0.352202 v -4.964376 q 0,-0.402515 0.167703,-0.402515 0.06709,0 0.201248,0.0503 1.056605,0.469602 2.230613,0.469602 1.207551,0 2.280929,-0.486372 0.08385,-0.05031 0.134186,-0.05031 0.167702,0 0.167702,0.184491 0,0.06709 -0.134186,0.268341 -0.134155,0.18449 -0.419288,0.436062 -0.285129,0.251583 -0.654089,0.486372 -0.368972,0.234795 -0.905664,0.402518 -0.536689,0.150944 -1.123691,0.150944 -0.704406,0 -1.42558,-0.218037 v 3.27045 q 0.872118,-0.855347 2.129983,-0.855347 1.341725,0 2.264159,1.090148 0.922433,1.073378 0.922433,2.582817 0,1.576523 -1.09015,2.666674 -1.090148,1.073378 -2.566044,1.073378 -1.341722,0 -2.197072,-0.955977 -0.838577,-0.955977 -0.838577,-2.113212 z"
         id="text19"
         aria-label="5" />
      <path
         style="font-size:5.64444px;line-height:1.8;font-family:'CMU Serif';-inkscape-font-specification:'CMU Serif';text-align:center;text-anchor:middle;fill:#ffffff;fill-opacity:0.4;stroke-width:0.300001"
         d="m 70.686068,90.337451 v -0.519919 l 5.14886,-7.865848 q 0.134186,-0.201249 0.335432,-0.201249 0.18449,0 0.218036,0.08385 0.0503,0.06709 0.0503,0.352202 v 7.631047 h 1.677154 v 0.519919 h -1.677154 v 1.459123 q 0,0.486375 0.201249,0.637319 0.201249,0.150944 1.073378,0.150944 h 0.352201 v 0.519918 q -0.687633,-0.0503 -2.280926,-0.0503 -1.576526,0 -2.264159,0.0503 v -0.519918 h 0.352201 q 0.872121,0 1.073381,-0.150944 0.201249,-0.150944 0.201249,-0.637319 v -1.459123 z m 0.469602,-0.519919 h 4.092253 V 83.56175 Z"
         id="text20"
         aria-label="4" />
      <path
         style="font-size:5.64444px;line-height:1.8;font-family:'CMU Serif';-inkscape-font-specification:'CMU Serif';text-align:center;text-anchor:middle;fill:#ffffff;fill-opacity:0.4;stroke-width:0.300001"
         d="m 39.474232,108.13626 q 0,-0.50315 0.28513,-0.73795 0.285129,-0.23479 0.654089,-0.23479 0.385745,0 0.65409,0.25158 0.285129,0.25158 0.285129,0.68763 0,0.46961 -0.335431,0.73795 -0.318658,0.25159 -0.77149,0.18449 0.402515,0.67086 1.140465,0.97275 0.737946,0.30189 1.425579,0.30189 0.721176,0 1.308182,-0.62055 0.587002,-0.62055 0.587002,-2.14676 0,-1.2914 -0.503145,-2.02935 -0.503146,-0.75472 -1.492666,-0.75472 h -0.737977 q -0.251583,0 -0.335431,-0.0166 -0.06709,-0.0336 -0.06709,-0.1677 0,-0.16771 0.251583,-0.20125 0.251584,0 0.65409,-0.0503 0.97275,-0.0335 1.492669,-0.87212 0.469602,-0.78826 0.469602,-1.91196 0,-1.02306 -0.486375,-1.44235 -0.486376,-0.436059 -1.123692,-0.436059 -0.587005,0 -1.241095,0.251583 -0.637319,0.234796 -0.98952,0.788266 1.039834,0 1.039834,0.83857 0,0.36897 -0.234795,0.62055 -0.234795,0.23479 -0.620546,0.23479 -0.368975,0 -0.620546,-0.23479 -0.234795,-0.2348 -0.234795,-0.63732 0,-0.95598 0.855347,-1.610066 0.855347,-0.670863 2.113212,-0.670863 1.241095,0 2.163529,0.654093 0.922434,0.654086 0.922434,1.660376 0,0.98952 -0.65409,1.81133 -0.654089,0.80503 -1.693924,1.14047 1.274636,0.25158 2.029355,1.12369 0.77149,0.85535 0.77149,1.91195 0,1.30818 -1.039834,2.28093 -1.023064,0.95598 -2.5325,0.95598 -1.392039,0 -2.39833,-0.75472 -0.989521,-0.75472 -0.989521,-1.87841 z"
         id="text21"
         aria-label="3" />
      <path
         style="font-size:5.64444px;line-height:1.8;font-family:'CMU Serif';-inkscape-font-specification:'CMU Serif';text-align:center;text-anchor:middle;fill:#ffffff;fill-opacity:0.4;stroke-width:0.300001"
         d="m 55.331709,110.40042 q 0,-0.30189 0.01664,-0.38575 0.03355,-0.10064 0.167702,-0.23479 l 3.220136,-3.58911 q 1.761011,-1.97904 1.761011,-3.70651 0,-1.12369 -0.587003,-1.92873 -0.587005,-0.805028 -1.660383,-0.805028 -0.737946,0 -1.358495,0.452828 -0.620546,0.45283 -0.905661,1.25787 0.0503,-0.0166 0.218037,-0.0166 0.419288,0 0.654092,0.26834 0.234795,0.25158 0.234795,0.60377 0,0.45283 -0.301888,0.67087 -0.285129,0.21803 -0.570232,0.21803 -0.117397,0 -0.268341,-0.0166 -0.150944,-0.0336 -0.385745,-0.26834 -0.234795,-0.23479 -0.234795,-0.65409 0,-1.17401 0.888893,-2.09644 0.88889,-0.939207 2.247386,-0.939207 1.542979,0 2.549273,0.922437 1.006291,0.90566 1.006291,2.33124 0,0.50315 -0.150944,0.95598 -0.150944,0.45283 -0.352201,0.80503 -0.201249,0.3522 -0.737947,0.92244 -0.536692,0.55346 -0.97275,0.95597 -0.436059,0.40252 -1.408809,1.25787 l -1.777784,1.72747 h 3.018879 q 1.475893,0 1.593293,-0.13419 0.167732,-0.23479 0.368975,-1.49266 h 0.419288 l -0.469602,2.91825 z"
         id="text22"
         aria-label="2" />
      <path
         style="font-size:5.64444px;line-height:1.8;font-family:'CMU Serif';-inkscape-font-specification:'CMU Serif';text-align:center;text-anchor:middle;fill:#ffffff;fill-opacity:0.4;stroke-width:0.300001"
         d="m 71.709132,100.82387 v -0.51992 q 2.012581,0 3.052419,-1.073376 0.285129,0 0.335428,0.06709 0.05031,0.06709 0.05031,0.368975 v 9.408831 q 0,0.50314 0.234795,0.65409 0.251583,0.15094 1.324952,0.15094 h 0.536689 v 0.51992 q -0.587006,-0.0503 -2.716988,-0.0503 -2.129985,0 -2.716991,0.0503 v -0.51992 h 0.536689 q 1.056608,0 1.308182,-0.15094 0.251583,-0.15095 0.251583,-0.65409 v -8.68766 q -0.87212,0.43606 -2.197069,0.43606 z"
         id="text23"
         aria-label="1" />
      <path
         style="font-size:5.64444px;line-height:1.8;font-family:'CMU Serif';-inkscape-font-specification:'CMU Serif';text-align:center;text-anchor:middle;fill:#ffffff;stroke-width:0.300001"
         d="m 33.973134,72.521893 v -0.519919 q 2.012585,0 3.052419,-1.073378 0.28513,0 0.335431,0.06709 0.0503,0.06709 0.0503,0.368972 v 9.408831 q 0,0.503146 0.234796,0.654089 0.251583,0.150944 1.324951,0.150944 h 0.536689 v 0.519919 q -0.587002,-0.05031 -2.716988,-0.05031 -2.129985,0 -2.716987,0.05031 v -0.519925 h 0.536689 q 1.056604,0 1.308178,-0.150943 0.251583,-0.150944 0.251583,-0.65409 v -8.687655 q -0.87212,0.436062 -2.197072,0.436062 z"
         id="text1"
         aria-label="1" />
      <path
         style="font-size:5.64444px;line-height:1.8;font-family:'CMU Serif';-inkscape-font-specification:'CMU Serif';text-align:center;text-anchor:middle;fill:#ffffff;stroke-width:0.300001"
         d="m 49.042369,82.098438 q 0,-0.301888 0.01664,-0.385745 0.03355,-0.100639 0.167732,-0.234795 l 3.220133,-3.589111 q 1.76101,-1.979038 1.76101,-3.706508 0,-1.123692 -0.587002,-1.928725 -0.587003,-0.805036 -1.660383,-0.805036 -0.737947,0 -1.358493,0.452832 -0.620549,0.452831 -0.905663,1.257865 0.0503,-0.01664 0.218036,-0.01664 0.419289,0 0.65409,0.268342 0.234795,0.251583 0.234795,0.603775 0,0.452832 -0.301888,0.67086 -0.28513,0.218037 -0.570232,0.218037 -0.117398,0 -0.268342,-0.01664 -0.150944,-0.03355 -0.385745,-0.268341 -0.234795,-0.234795 -0.234795,-0.654093 0,-1.174005 0.88889,-2.096441 0.888894,-0.939204 2.247386,-0.939204 1.542983,0 2.549274,0.922433 1.006291,0.905664 1.006291,2.331243 0,0.503146 -0.150944,0.955977 -0.150944,0.452832 -0.352205,0.805034 -0.201248,0.352204 -0.737946,0.922436 -0.536689,0.55346 -0.972751,0.955978 -0.436058,0.402515 -1.408809,1.257865 l -1.77778,1.727467 h 3.018875 q 1.475896,0 1.593297,-0.134156 0.167702,-0.234795 0.368971,-1.492669 H 55.7341 l -0.469602,2.918248 z"
         id="text2"
         aria-label="2" />
      <path
         style="font-size:5.64444px;line-height:1.8;font-family:'CMU Serif';-inkscape-font-specification:'CMU Serif';text-align:center;text-anchor:middle;fill:#ffffff;stroke-width:0.300001"
         d="m 64.631519,79.834282 q 0,-0.503148 0.28513,-0.737949 0.285129,-0.234795 0.654089,-0.234795 0.385745,0 0.65409,0.251583 0.285129,0.251583 0.285129,0.687633 0,0.469602 -0.335431,0.737946 -0.318661,0.251583 -0.77149,0.18449 0.402515,0.67086 1.140465,0.972748 0.737946,0.301888 1.425579,0.301888 0.721176,0 1.308179,-0.620546 0.587005,-0.620546 0.587005,-2.146756 0,-1.291408 -0.503148,-2.029358 Q 68.85797,76.44645 67.86845,76.44645 h -0.737947 q -0.251583,0 -0.335431,-0.01664 -0.06709,-0.03355 -0.06709,-0.167702 0,-0.167702 0.251583,-0.201249 0.251583,0 0.65409,-0.0503 0.97275,-0.03355 1.492666,-0.87212 0.469605,-0.78826 0.469605,-1.911954 0,-1.023064 -0.486376,-1.442353 -0.486375,-0.436058 -1.123694,-0.436058 -0.587002,0 -1.241092,0.251583 -0.637319,0.234795 -0.989521,0.788263 1.039835,0 1.039835,0.838577 0,0.368974 -0.234795,0.620546 -0.234795,0.234795 -0.620546,0.234795 -0.368975,0 -0.620549,-0.234795 -0.234795,-0.234795 -0.234795,-0.637317 0,-0.955977 0.85535,-1.610069 0.855347,-0.67086 2.113212,-0.67086 1.241095,0 2.163528,0.65409 0.922434,0.654089 0.922434,1.660383 0,0.989518 -0.654089,1.811324 -0.65409,0.805033 -1.693924,1.140465 1.274636,0.251583 2.029355,1.123691 0.77149,0.85535 0.77149,1.911957 0,1.308179 -1.039834,2.28093 -1.023064,0.955977 -2.532504,0.955977 -1.392035,0 -2.398329,-0.75472 -0.989521,-0.754719 -0.989521,-1.878411 z"
         id="text3"
         aria-label="3" />
      <path
         style="font-size:5.64444px;line-height:1.8;font-family:'CMU Serif';-inkscape-font-specification:'CMU Serif';text-align:center;text-anchor:middle;fill:#ffffff;stroke-width:0.300001"
         d="m 32.95007,96.626797 v -0.519915 l 5.148861,-7.865852 q 0.134186,-0.201249 0.335431,-0.201249 0.184491,0 0.218037,0.08385 0.0503,0.06709 0.0503,0.352202 v 7.631051 h 1.677153 v 0.519915 h -1.677153 v 1.459126 q 0,0.486372 0.201249,0.637316 0.201248,0.150944 1.07338,0.150944 h 0.352202 v 0.519919 q -0.687633,-0.0503 -2.280929,-0.0503 -1.576524,0 -2.264157,0.0503 v -0.519919 h 0.352202 q 0.87212,0 1.073378,-0.150944 0.201248,-0.150944 0.201248,-0.637316 v -1.459128 z m 0.469602,-0.519915 h 4.092256 V 89.8511 Z"
         id="text4"
         aria-label="4" />
      <path
         style="font-size:5.64444px;line-height:1.8;font-family:'CMU Serif';-inkscape-font-specification:'CMU Serif';text-align:center;text-anchor:middle;fill:#ffffff;stroke-width:0.300001"
         d="m 49.042369,96.693884 q 0,-0.503145 0.268342,-0.687633 0.268341,-0.201248 0.553459,-0.201248 0.385748,0 0.603775,0.251583 0.234795,0.234795 0.234795,0.570232 0,0.335431 -0.234795,0.587006 -0.218036,0.234795 -0.603775,0.234795 -0.184491,0 -0.28513,-0.03355 0.218037,0.77149 0.88889,1.324952 0.687633,0.553459 1.576527,0.553459 1.123691,0 1.794554,-1.090148 0.402515,-0.704406 0.402515,-2.297702 0,-1.408806 -0.301888,-2.113212 -0.469602,-1.073378 -1.425579,-1.073378 -1.358496,0 -2.163529,1.174008 -0.100639,0.150944 -0.218037,0.150944 -0.167702,0 -0.201248,-0.08385 -0.03355,-0.100639 -0.03355,-0.352202 v -4.964373 q 0,-0.402518 0.167732,-0.402518 0.06709,0 0.201249,0.05031 1.056607,0.469602 2.230615,0.469602 1.207549,0 2.280927,-0.486376 0.08385,-0.0503 0.134185,-0.0503 0.167702,0 0.167702,0.18449 0,0.06709 -0.134155,0.268341 -0.134186,0.184491 -0.419289,0.436059 -0.285129,0.251583 -0.654089,0.486375 -0.368975,0.234795 -0.905664,0.402518 -0.536689,0.150944 -1.123694,0.150944 -0.704403,0 -1.425579,-0.218036 v 3.270449 q 0.87212,-0.85535 2.129985,-0.85535 1.341722,0 2.264156,1.090151 0.922434,1.073378 0.922434,2.582817 0,1.576524 -1.090148,2.666675 -1.090151,1.073377 -2.566044,1.073377 -1.341725,0 -2.197072,-0.955977 -0.838577,-0.955977 -0.838577,-2.113215 z"
         id="text5"
         aria-label="5" />
      <path
         style="font-size:5.64444px;line-height:1.8;font-family:'CMU Serif';-inkscape-font-specification:'CMU Serif';text-align:center;text-anchor:middle;fill:#ffffff;stroke-width:0.300001"
         d="m 64.631519,94.094297 q 0,-2.633131 1.341726,-4.243197 1.341722,-1.62684 3.069189,-1.62684 1.006294,0 1.559753,0.519918 0.570232,0.503146 0.570232,1.291406 0,0.436062 -0.251583,0.620549 -0.251583,0.18449 -0.519916,0.18449 -0.301888,0 -0.536689,-0.201248 -0.234795,-0.201249 -0.234795,-0.570233 0,-0.754716 0.922434,-0.754716 -0.436061,-0.670863 -1.475896,-0.670863 -0.318658,0 -0.654089,0.100639 -0.318661,0.08385 -0.75472,0.402515 -0.419288,0.301888 -0.754719,0.805034 -0.318659,0.486375 -0.55346,1.408809 -0.218036,0.922433 -0.218036,2.129985 v 0.402518 q 0.687633,-1.660383 2.096442,-1.660383 1.408809,0 2.381556,1.073378 0.97275,1.073377 0.97275,2.666674 0,1.626839 -1.023064,2.71699 -1.00629,1.073378 -2.431873,1.073378 -0.637316,0 -1.224321,-0.268341 -0.570233,-0.268342 -1.106922,-0.87212 Q 65.26883,98.018863 64.950172,96.861628 64.63151,95.68762 64.63151,94.094324 Z m 1.542983,1.509439 q 0,1.64361 0.301888,2.43187 0.05031,0.134186 0.150944,0.318661 0.117397,0.167703 0.301888,0.402516 0.201248,0.234795 0.519915,0.385744 0.318661,0.150944 0.687633,0.150944 1.123695,0 1.660383,-1.090148 0.2851,-0.603775 0.2851,-2.247385 0,-1.677154 -0.301888,-2.2977 -0.519915,-1.039837 -1.55975,-1.039837 -0.704406,0 -1.190781,0.486375 -0.486372,0.486375 -0.670859,1.140465 -0.184491,0.637319 -0.184491,1.358495 z"
         id="text6"
         aria-label="6" />
      <path
         style="font-size:5.64444px;line-height:1.8;font-family:'CMU Serif';-inkscape-font-specification:'CMU Serif';text-align:center;text-anchor:middle;fill:#ffffff;stroke-width:0.300001"
         d="m 33.419672,108.80714 0.553462,-3.45493 h 0.419288 q 0.0503,0.20125 0.134186,0.30189 0.08385,0.0838 0.553459,0.1677 0.486375,0.0671 1.459123,0.0671 h 4.075483 q 0,0.38574 -0.150944,0.587 l -2.264156,3.18659 q -0.721176,1.00629 -1.039834,2.86794 -0.184491,1.24109 -0.184491,2.75053 v 0.85535 q 0,0.92243 -0.77149,0.92243 -0.771492,0 -0.771492,-0.92243 0,-3.20337 2.062898,-6.3061 0.218037,-0.31866 1.023064,-1.45912 0.821807,-1.14047 0.85535,-1.19078 h -3.471707 q -1.52621,0 -1.643613,0.10064 -0.167703,0.15094 -0.419289,1.52621 z"
         id="text12"
         aria-label="7" />
      <path
         style="font-size:5.64444px;line-height:1.8;font-family:'CMU Serif';-inkscape-font-specification:'CMU Serif';text-align:center;text-anchor:middle;fill:#ffffff;stroke-width:0.300001"
         d="m 48.908195,114.15726 q 0,-1.87841 2.415103,-3.08596 -1.039837,-0.7044 -1.224321,-0.90566 -0.73795,-0.82181 -0.73795,-1.84487 0,-1.17401 0.888893,-1.97904 0.888891,-0.82181 2.146756,-0.82181 1.207551,0 2.113212,0.70441 0.905664,0.68763 0.905664,1.79455 0,1.55976 -2.029355,2.59959 1.341722,0.83858 1.66038,1.19078 0.821806,0.90566 0.821806,2.0629 0,1.34172 -1.039834,2.26416 -1.023064,0.92243 -2.448646,0.92243 -1.392036,0 -2.43187,-0.80503 -1.039838,-0.82181 -1.039838,-2.09645 z m 0.838577,0 q 0,1.03984 0.771493,1.74424 0.78826,0.68764 1.878411,0.68764 1.056607,0 1.844868,-0.60378 0.788263,-0.60377 0.788263,-1.50944 0,-0.3522 -0.117398,-0.65409 -0.117397,-0.30188 -0.352201,-0.53669 -0.234795,-0.25158 -0.385745,-0.3522 -0.134186,-0.11739 -0.402518,-0.30189 l -2.062902,-1.30818 q -1.962271,1.09015 -1.962271,2.83439 z m 0.352205,-6.49058 q 0,0.80503 0.838576,1.35849 l 2.079669,1.34173 q 1.660383,-0.97275 1.660383,-2.34802 0,-0.88889 -0.687633,-1.47589 -0.670862,-0.60378 -1.610069,-0.60378 -0.922434,0 -1.610067,0.48638 -0.670859,0.48637 -0.670859,1.24109 z"
         id="text13"
         aria-label="8" />
      <path
         style="font-size:5.64444px;line-height:1.8;font-family:'CMU Serif';-inkscape-font-specification:'CMU Serif';text-align:center;text-anchor:middle;fill:#ffffff;stroke-width:0.300001"
         d="m 64.631519,109.29352 q 0,-0.88889 0.251583,-1.49267 0.268342,-0.62054 0.821807,-1.22432 1.006291,-1.05661 2.465414,-1.05661 0.620548,0 1.174008,0.26834 0.553462,0.25159 1.073377,0.85535 0.536689,0.58701 0.85535,1.76101 0.318658,1.15724 0.318658,2.76731 0,2.59959 -1.257865,4.2432 -1.257865,1.64361 -2.951789,1.64361 -1.07338,0 -1.710696,-0.48638 -0.620549,-0.48637 -0.620549,-1.32495 0,-0.43606 0.234795,-0.62055 0.251583,-0.18449 0.536689,-0.18449 0.301887,0 0.536688,0.20125 0.234796,0.20125 0.234796,0.57023 0,0.30189 -0.201249,0.5367 -0.18449,0.23479 -0.670863,0.23479 0.486375,0.60378 1.64361,0.60378 0.419289,0 0.838577,-0.18449 0.419288,-0.20125 0.87212,-0.67087 0.452832,-0.4696 0.721176,-1.45912 0.2851,-0.98952 0.2851,-2.38156 v -0.53669 q -0.670859,1.67716 -2.096442,1.67716 -1.408809,0 -2.381556,-1.07338 -0.972751,-1.09015 -0.972751,-2.66668 z m 1.50944,0.0166 q 0,1.66038 0.301888,2.28093 0.519918,1.05661 1.559752,1.05661 1.023065,0 1.52621,-0.90567 0.519919,-0.92243 0.519919,-2.11321 0,-1.64361 -0.268342,-2.36479 -0.503145,-1.32495 -1.610066,-1.32495 -1.106922,0 -1.677154,1.05661 -0.352201,0.62054 -0.352201,2.31447 z"
         id="text14"
         aria-label="9" />
      <path
         style="font-size:5.64444px;line-height:1.8;font-family:'CMU Serif';-inkscape-font-specification:'CMU Serif';text-align:center;text-anchor:middle;fill:#ffffff;fill-opacity:0.2;stroke-width:0.300001"
         d="m 46.551806,59.943218 v -0.519916 q 2.012585,0 3.052419,-1.07338 0.28513,0 0.335431,0.06709 0.0503,0.06709 0.0503,0.368975 v 9.408831 q 0,0.503146 0.234795,0.65409 0.251583,0.150944 1.324952,0.150944 h 0.536689 v 0.519918 q -0.587005,-0.0503 -2.716991,-0.0503 -2.129985,0 -2.716987,0.0503 v -0.519918 h 0.536688 q 1.056608,0 1.308179,-0.150944 0.251583,-0.150944 0.251583,-0.65409 v -8.687661 q -0.87212,0.436059 -2.197072,0.436059 z"
         id="text24"
         aria-label="1" />
      <path
         style="font-size:5.64444px;line-height:1.8;font-family:'CMU Serif';-inkscape-font-specification:'CMU Serif';text-align:center;text-anchor:middle;fill:#ffffff;fill-opacity:0.2;stroke-width:0.300001"
         d="m 61.621035,69.519766 q 0,-0.301887 0.01664,-0.385748 0.03355,-0.100639 0.167703,-0.234795 l 3.220136,-3.589108 q 1.76101,-1.979041 1.76101,-3.706508 0,-1.123694 -0.587002,-1.928728 -0.587006,-0.805033 -1.660383,-0.805033 -0.737947,0 -1.358496,0.452832 -0.620546,0.452832 -0.90566,1.257865 0.0503,-0.01664 0.218036,-0.01664 0.419289,0 0.65409,0.268342 0.234795,0.251583 0.234795,0.603773 0,0.452831 -0.301888,0.670862 -0.28513,0.218037 -0.570232,0.218037 -0.117398,0 -0.268342,-0.01664 -0.150944,-0.03355 -0.385745,-0.268342 -0.234795,-0.234795 -0.234795,-0.654089 0,-1.174008 0.888893,-2.096442 0.888891,-0.939207 2.247386,-0.939207 1.54298,0 2.549274,0.922437 1.006291,0.90566 1.006291,2.331242 0,0.503146 -0.150944,0.955978 -0.150944,0.452831 -0.352202,0.805033 -0.201248,0.352201 -0.737949,0.922434 -0.536689,0.553462 -0.972748,0.955977 -0.436061,0.402518 -1.408809,1.257865 l -1.777783,1.72747 h 3.018875 q 1.475896,0 1.593297,-0.134185 0.167702,-0.234795 0.368974,-1.492666 h 0.419289 l -0.469602,2.918248 z"
         id="text25"
         aria-label="2" />
      <path
         style="font-size:5.64444px;line-height:1.8;font-family:'CMU Serif';-inkscape-font-specification:'CMU Serif';text-align:center;text-anchor:middle;fill:#ffffff;fill-opacity:0.2;stroke-width:0.300001"
         d="m 77.210194,67.255607 q 0,-0.503145 0.2851,-0.737946 0.285129,-0.234795 0.654089,-0.234795 0.385748,0 0.654093,0.251583 0.285099,0.251583 0.285099,0.687633 0,0.469605 -0.335431,0.737949 -0.318658,0.251583 -0.77149,0.184491 0.402518,0.670862 1.140465,0.97275 0.737946,0.301888 1.425579,0.301888 0.721176,0 1.308182,-0.620546 0.587002,-0.620549 0.587002,-2.146759 0,-1.291408 -0.503145,-2.029354 -0.503146,-0.75472 -1.492666,-0.75472 h -0.73795 q -0.251583,0 -0.335428,-0.01664 -0.06709,-0.03355 -0.06709,-0.167732 0,-0.167702 0.251583,-0.201248 0.251583,0 0.654093,-0.0503 0.972747,-0.03355 1.492666,-0.87212 0.469602,-0.788263 0.469602,-1.911955 0,-1.023064 -0.486375,-1.442352 -0.486373,-0.436062 -1.123692,-0.436062 -0.587005,0 -1.241095,0.251583 -0.637319,0.234796 -0.98952,0.788264 1.039837,0 1.039837,0.838576 0,0.368972 -0.234795,0.620546 -0.234795,0.234795 -0.620546,0.234795 -0.368975,0 -0.620546,-0.234795 -0.234795,-0.234795 -0.234795,-0.637319 0,-0.955977 0.855347,-1.610067 0.85535,-0.670862 2.113215,-0.670862 1.241092,0 2.163526,0.654092 0.922436,0.65409 0.922436,1.660381 0,0.98952 -0.654092,1.811327 -0.654089,0.805033 -1.693924,1.140464 1.274636,0.251583 2.029355,1.123692 0.77149,0.85535 0.77149,1.911954 0,1.308182 -1.039834,2.280929 -1.023064,0.955978 -2.532501,0.955978 -1.392038,0 -2.398329,-0.75472 -0.989521,-0.754717 -0.989521,-1.878411 z"
         id="text26"
         aria-label="3" />
      <path
         style="font-size:5.64444px;line-height:1.8;font-family:'CMU Serif';-inkscape-font-specification:'CMU Serif';text-align:center;text-anchor:middle;fill:#ffffff;fill-opacity:0.2;stroke-width:0.300001"
         d="m 45.528745,84.048126 v -0.519919 l 5.148861,-7.865849 q 0.134185,-0.201248 0.335428,-0.201248 0.18449,0 0.218037,0.08385 0.05031,0.06709 0.05031,0.352201 v 7.631048 h 1.677153 v 0.519919 h -1.677153 v 1.459122 q 0,0.486375 0.201248,0.637319 0.201249,0.150944 1.073378,0.150944 h 0.352202 v 0.519919 q -0.687633,-0.05031 -2.28093,-0.05031 -1.576523,0 -2.264156,0.05031 v -0.519919 h 0.352202 q 0.87212,0 1.073378,-0.150944 0.201248,-0.150944 0.201248,-0.637319 v -1.459121 z m 0.469602,-0.519919 H 50.0906 v -6.255782 z"
         id="text27"
         aria-label="4" />
      <path
         style="font-size:5.64444px;line-height:1.8;font-family:'CMU Serif';-inkscape-font-specification:'CMU Serif';text-align:center;text-anchor:middle;fill:#ffffff;fill-opacity:0.2;stroke-width:0.300001"
         d="m 61.621035,84.115212 q 0,-0.503145 0.268341,-0.687632 0.268342,-0.201249 0.553462,-0.201249 0.385745,0 0.603776,0.251583 0.234795,0.234795 0.234795,0.570232 0,0.335432 -0.234795,0.587003 -0.218037,0.234795 -0.603776,0.234795 -0.18449,0 -0.285129,-0.03355 0.218037,0.771489 0.888893,1.324949 0.687633,0.553462 1.576523,0.553462 1.123695,0 1.794554,-1.090151 0.402518,-0.704403 0.402518,-2.2977 0,-1.408809 -0.301887,-2.113212 -0.469602,-1.073381 -1.425583,-1.073381 -1.358492,0 -2.163525,1.174009 -0.10064,0.150943 -0.218037,0.150943 -0.167702,0 -0.201249,-0.08385 -0.03355,-0.100639 -0.03355,-0.352201 v -4.964377 q 0,-0.402515 0.167702,-0.402515 0.06709,0 0.201249,0.0503 1.056607,0.469605 2.230615,0.469605 1.207552,0 2.28093,-0.486375 0.08385,-0.05031 0.134185,-0.05031 0.167702,0 0.167702,0.18449 0,0.06709 -0.134185,0.268342 -0.134186,0.18449 -0.419289,0.436061 -0.285099,0.251583 -0.654089,0.486375 -0.368975,0.234796 -0.905664,0.402516 -0.536688,0.150944 -1.123691,0.150944 -0.704406,0 -1.425582,-0.218037 v 3.27045 q 0.87212,-0.855347 2.129985,-0.855347 1.341725,0 2.264159,1.090148 0.922434,1.07338 0.922434,2.582817 0,1.576526 -1.090151,2.666674 -1.090148,1.073378 -2.566044,1.073378 -1.341722,0 -2.197072,-0.955978 -0.838577,-0.955977 -0.838577,-2.113212 z"
         id="text28"
         aria-label="5" />
      <path
         style="font-size:5.64444px;line-height:1.8;font-family:'CMU Serif';-inkscape-font-specification:'CMU Serif';text-align:center;text-anchor:middle;fill:#ffffff;fill-opacity:0.2;stroke-width:0.300001"
         d="m 77.210194,81.515625 q 0,-2.633134 1.341722,-4.2432 1.341722,-1.62684 3.069192,-1.62684 1.006291,0 1.55975,0.519919 0.570233,0.503145 0.570233,1.291408 0,0.436059 -0.251583,0.620546 -0.251583,0.184491 -0.519919,0.184491 -0.301888,0 -0.536689,-0.201249 -0.234795,-0.201249 -0.234795,-0.570232 0,-0.75472 0.922434,-0.75472 -0.436059,-0.670863 -1.475896,-0.670863 -0.318658,0 -0.654089,0.10064 -0.318658,0.08385 -0.75472,0.402518 -0.419288,0.301888 -0.754717,0.805033 -0.318661,0.486375 -0.553462,1.408809 -0.218037,0.922434 -0.218037,2.129985 v 0.402515 q 0.687633,-1.66038 2.096442,-1.66038 1.408809,0 2.38156,1.073378 0.972747,1.073378 0.972747,2.666674 0,1.62684 -1.023061,2.716988 -1.006294,1.073377 -2.431873,1.073377 -0.637319,0 -1.224322,-0.268341 -0.570232,-0.268341 -1.106921,-0.87212 -0.536692,-0.603773 -0.85535,-1.761011 -0.318658,-1.174008 -0.318658,-2.767301 z m 1.54298,1.509436 q 0,1.64361 0.301888,2.431874 0.0503,0.134185 0.150944,0.318658 0.117397,0.167732 0.301887,0.402518 0.201249,0.234795 0.519919,0.385745 0.318658,0.150944 0.687633,0.150944 1.123691,0 1.66038,-1.090151 0.28513,-0.603773 0.28513,-2.247386 0,-1.677153 -0.301888,-2.297699 -0.519919,-1.039835 -1.559753,-1.039835 -0.704406,0 -1.190778,0.486375 -0.486376,0.486373 -0.670863,1.140465 -0.18449,0.637316 -0.18449,1.358492 z"
         id="text29"
         aria-label="6" />
      <path
         style="font-size:5.64444px;line-height:1.8;font-family:'CMU Serif';-inkscape-font-specification:'CMU Serif';text-align:center;text-anchor:middle;fill:#ffffff;fill-opacity:0.2;stroke-width:0.300001"
         d="m 45.998347,96.228472 0.553459,-3.454938 h 0.419288 q 0.05031,0.201249 0.134186,0.301888 0.08385,0.08385 0.553459,0.167703 0.486375,0.06709 1.459126,0.06709 h 4.075483 q 0,0.385745 -0.150944,0.587006 l -2.264159,3.18659 q -0.721176,1.006294 -1.039834,2.867934 -0.184491,1.241095 -0.184491,2.750535 v 0.85534 q 0,0.92244 -0.771489,0.92244 -0.77149,0 -0.77149,-0.92244 0,-3.20336 2.062898,-6.306092 0.218037,-0.318661 1.023064,-1.459126 0.821804,-1.140461 0.855347,-1.190778 h -3.471707 q -1.52621,0 -1.64361,0.100639 -0.167732,0.150944 -0.419289,1.52621 z"
         id="text30"
         aria-label="7" />
      <path
         style="font-size:5.64444px;line-height:1.8;font-family:'CMU Serif';-inkscape-font-specification:'CMU Serif';text-align:center;text-anchor:middle;fill:#ffffff;fill-opacity:0.2;stroke-width:0.300001"
         d="m 61.486864,101.57859 q 0,-1.878411 2.4151,-3.085962 -1.039834,-0.704403 -1.224322,-0.905661 -0.737946,-0.821806 -0.737946,-1.844871 0,-1.174008 0.88889,-1.979041 0.888891,-0.821803 2.146756,-0.821803 1.207551,0 2.113215,0.704403 0.905663,0.687632 0.905663,1.794554 0,1.559753 -2.029358,2.599587 1.341726,0.838577 1.660384,1.190781 0.821803,0.905663 0.821803,2.062893 0,1.34173 -1.039834,2.26416 -1.023064,0.92243 -2.448644,0.92243 -1.392038,0 -2.431873,-0.80503 -1.039834,-0.8218 -1.039834,-2.09644 z m 0.838577,0 q 0,1.03984 0.77149,1.74424 0.788263,0.68763 1.878411,0.68763 1.056607,0 1.84487,-0.60377 0.78826,-0.60378 0.78826,-1.50944 0,-0.3522 -0.117397,-0.65409 -0.117398,-0.30189 -0.352202,-0.53669 -0.234795,-0.25158 -0.385745,-0.3522 -0.134185,-0.1174 -0.402518,-0.30189 l -2.062901,-1.308178 q -1.962268,1.090151 -1.962268,2.834388 z m 0.352201,-6.490583 q 0,0.805033 0.838577,1.358495 l 2.079672,1.341723 q 1.66038,-0.972751 1.66038,-2.348016 0,-0.888891 -0.687633,-1.475896 -0.67086,-0.603773 -1.610067,-0.603773 -0.922433,0 -1.610066,0.486372 -0.670863,0.486375 -0.670863,1.241095 z"
         id="text31"
         aria-label="8" />
      <path
         style="font-size:5.64444px;line-height:1.8;font-family:'CMU Serif';-inkscape-font-specification:'CMU Serif';text-align:center;text-anchor:middle;fill:#ffffff;fill-opacity:0.2;stroke-width:0.300001"
         d="m 77.210194,96.714847 q 0,-0.888893 0.251583,-1.492669 0.268342,-0.620546 0.821807,-1.224322 1.006291,-1.056604 2.465416,-1.056604 0.620546,0 1.174005,0.268341 0.553462,0.251583 1.073381,0.855347 0.536689,0.587006 0.855347,1.761011 0.318658,1.157237 0.318658,2.767304 0,2.599585 -1.257865,4.243195 -1.257865,1.64361 -2.951789,1.64361 -1.073378,0 -1.710697,-0.48637 -0.620546,-0.48638 -0.620546,-1.32495 0,-0.43606 0.234795,-0.62055 0.251583,-0.18449 0.536689,-0.18449 0.301888,0 0.536689,0.20125 0.234795,0.20125 0.234795,0.57023 0,0.30189 -0.201248,0.53669 -0.184491,0.2348 -0.670863,0.2348 0.486375,0.60377 1.643613,0.60377 0.419288,0 0.838577,-0.18449 0.419288,-0.20125 0.872117,-0.67086 0.452832,-0.4696 0.721176,-1.45912 0.28513,-0.98952 0.28513,-2.38156 v -0.536688 q -0.670863,1.677148 -2.096442,1.677148 -1.408809,0 -2.38156,-1.073373 -0.972747,-1.090151 -0.972747,-2.666674 z m 1.509436,0.01664 q 0,1.660384 0.301888,2.28093 0.519919,1.056603 1.559753,1.056603 1.023064,0 1.52621,-0.90566 0.519918,-0.922433 0.519918,-2.113215 0,-1.64361 -0.268341,-2.364786 -0.503146,-1.324949 -1.610067,-1.324949 -1.106921,0 -1.677153,1.056605 -0.352205,0.620549 -0.352208,2.314472 z"
         id="text32"
         aria-label="9" />
      <path
         style="font-size:10.1389px;line-height:1.8;font-family:'CMU Serif';-inkscape-font-specification:'CMU Serif';text-align:center;text-anchor:middle;fill:#ffffff;stroke-width:0.299998"
         d="M 26.652361,118.91721 V 64.802795 h 2.532501 v 1.244633 h -1.408808 v 51.625142 h 1.408808 v 1.24464 z"
         id="text33"
         aria-label="[" />
      <path
         style="font-size:10.1389px;line-height:1.8;font-family:'CMU Serif';-inkscape-font-specification:'CMU Serif';text-align:center;text-anchor:middle;fill:#ffffff;stroke-width:0.299998"
         d="M 81.071838,118.91722 V 64.802805 h -2.532501 v 1.244633 h 1.408808 v 51.625142 h -1.408808 v 1.24464 z"
         id="text34"
         aria-label="[" />
      <path
         style="font-size:10.1389px;line-height:1.8;font-family:'CMU Serif';-inkscape-font-specification:'CMU Serif';text-align:center;text-anchor:middle;fill:#ffffff;fill-opacity:0.2;stroke-width:0.299998"
         d="M 39.231027,106.33851 V 52.224093 h 2.532501 v 1.244633 h -1.408807 v 51.625154 h 1.408807 v 1.24463 z"
         id="text35"
         aria-label="[" />
      <path
         style="font-size:10.1389px;line-height:1.8;font-family:'CMU Serif';-inkscape-font-specification:'CMU Serif';text-align:center;text-anchor:middle;fill:#ffffff;fill-opacity:0.2;stroke-width:0.299998"
         d="M 93.650503,106.33852 V 52.224103 h -2.532501 v 1.244634 h 1.408809 v 51.625153 h -1.408809 v 1.24463 z"
         id="text36"
         aria-label="[" />
    </g>
  </g>
</svg>
